<svg xmlns="http://www.w3.org/2000/svg" viewBox="0 0 74 86.109">
  <defs>
    <style>
      .cls-1 {
        fill: #fff;
      }
    </style>
  </defs>
  <g id="Group_3240" data-name="Group 3240" transform="translate(-0.038)">
    <path id="Path_3192" data-name="Path 3192" class="cls-1" d="M43.517,55.748a3.9,3.9,0,0,1,5.549.685,3.938,3.938,0,0,1-.681,5.575,3.9,3.9,0,0,1-5.549-.685,3.948,3.948,0,0,1,.681-5.575m8.762,14.768a2.311,2.311,0,1,1-2.531,2.054,2.306,2.306,0,0,1,2.531-2.054m-10.709-.88a2.3,2.3,0,1,1-2.044-2.543,2.3,2.3,0,0,1,2.044,2.543M17.135,39.317a2.3,2.3,0,0,1-3.213-.391,2.329,2.329,0,0,1,.389-3.228,2.3,2.3,0,0,1,3.213.391,2.329,2.329,0,0,1-.389,3.228M8.763,27.972A3.938,3.938,0,0,1,9.444,22.4a3.965,3.965,0,0,1,4.868,6.259,4.087,4.087,0,0,1-5.549-.685m30.471,7.14V0H24.923l5.646,8.02v48.8H26.188V22.1C16.161,13.692,7.01,10.074,2.629,13.5c-6.815,5.379.292,25.722,15.673,45.381C33.782,78.536,51.791,90.175,58.509,84.8c6.815-5.379-.292-25.722-15.673-45.381-1.168-1.467-2.336-2.934-3.6-4.3" transform="translate(0)"/>
    <path id="Path_3193" data-name="Path 3193" class="cls-1" d="M66.6,0V24.5H45.8l5.8,8.2h15V58.1h9.1V0Z" transform="translate(-1.662)"/>
  </g>
</svg>
