<svg xmlns="http://www.w3.org/2000/svg" viewBox="0 0 231.5 49.757">
  <defs>
    <style>
      .cls-1, .cls-2 {
        fill: #fff;
      }

      .cls-1 {
        stroke: #fff;
      }

      .cls-2 {
        font-size: 27px;
        font-family: DINAlternate-Bold, DIN Alternate;
        font-weight: 700;
      }
    </style>
  </defs>
  <g id="Group_3241" data-name="Group 3241" transform="translate(-781.5 -332.999)">
    <path id="icon" class="cls-1" d="M-2863.032-416.318a.211.211,0,0,1-.053,0l-22.676-5.115h-.012a.2.2,0,0,1-.073-.022.244.244,0,0,1-.12-.117.261.261,0,0,1-.018-.049h0a.016.016,0,0,1,0,0,.176.176,0,0,1,0-.023s0-.007,0-.01,0-.012,0-.018l-2.034-24.283a.243.243,0,0,1,.025-.131l6.523-12.739a.225.225,0,0,1,.015-.029.2.2,0,0,1,.066-.072.236.236,0,0,1,.051-.028l14.777-6.091a.23.23,0,0,1,.15-.009l22.706,5.617a.24.24,0,0,1,.144.1.237.237,0,0,1,.044.127l1.495,24.35a.218.218,0,0,1-.024.121l-6.14,12.361a.279.279,0,0,1-.037.05.288.288,0,0,1-.026.028l-.021.014a.253.253,0,0,1-.083.037l-14.587,5.929a.2.2,0,0,1-.067.014h-.021ZM-2885-421.761l21.84,4.926,4.217-8.061-12.517-3.149Zm22.49,4.729,13.317-5.412-9.264-2.33Zm-22.716-5.16,13.49-6.265-.243-3.746-7.508-1.778Zm-2.3-23.644,1.951,23.244,5.71-11.732-.248-3.71-.716-10.727Zm38.848,23.02-.59-8.83-7.17,3.021-1.784,3.407Zm.452-.6,5.439-10.96-6,2.529Zm-23.028-5.08,12.545,3.157.345-.658,1.388-2.653-14.511-3.437Zm14.376-.635-1.266-19.513-4.307-1.02-10.336-2.446,1.266,19.512Zm.484-.043,7.091-2.987-.977-14.62-7.375-1.747.1,1.565Zm7.57-3.189,6.3-2.653-1.428-23.287-5.443,10.6-.4.777Zm-23.187-.351-.146-2.259-1.113-17.089-7.085,3.095.166,2.49.8,12.016Zm-15.247-13.765,6.4-2.8-.573-8.575Zm37.082-.775,5-9.73.889-1.732-12.852,5.59-.789.344.243,3.75Zm-8-1.894-.233-3.595-12.524-3.151-1.754,3.31Zm-22.214-.333,7.167-3.133,1.8-3.4-9.565-2.407Zm22.188-3.712,13.68-5.953-21.826-5.4-4.353,8.212Zm-12.984-3.265,4.182-7.891-13.476,5.553Z" transform="translate(3670.025 798.574)"/>
    <text id="DOME-A-RAMA" class="cls-2" transform="translate(835 368)"><tspan x="0" y="0">DOME-A-RAMA</tspan></text>
  </g>
</svg>
