<svg id="Group_3198" data-name="Group 3198" xmlns="http://www.w3.org/2000/svg" viewBox="0 0 16 15.229">
    <defs>
        <style>
            .cls-1 {
            fill: #fff;
            }
        </style>
    </defs>
    <path id="Path_3151" data-name="Path 3151" class="cls-1" d="M16,5.783V1.542H12.916V0h-.771V1.542h-8.1V0H3.277V1.542H0V15.229H16ZM.771,2.313H3.277v.964h.771V2.313h8.1v.964h.771V2.313h2.313v2.7H.771Zm0,12.145V5.783H15.229v8.675Z"/>
    <rect id="Rectangle_2269" data-name="Rectangle 2269" class="cls-1" width="1.928" height="0.771" transform="translate(7.036 7.518)"/>
    <rect id="Rectangle_2270" data-name="Rectangle 2270" class="cls-1" width="1.928" height="0.771" transform="translate(3.181 7.518)"/>
    <rect id="Rectangle_2271" data-name="Rectangle 2271" class="cls-1" width="1.928" height="0.771" transform="translate(10.892 7.518)"/>
    <rect id="Rectangle_2272" data-name="Rectangle 2272" class="cls-1" width="1.928" height="0.771" transform="translate(7.036 9.639)"/>
    <rect id="Rectangle_2273" data-name="Rectangle 2273" class="cls-1" width="1.928" height="0.771" transform="translate(3.181 9.639)"/>
    <rect id="Rectangle_2274" data-name="Rectangle 2274" class="cls-1" width="1.928" height="0.771" transform="translate(10.892 9.639)"/>
    <rect id="Rectangle_2275" data-name="Rectangle 2275" class="cls-1" width="1.928" height="0.771" transform="translate(7.036 11.759)"/>
    <rect id="Rectangle_2276" data-name="Rectangle 2276" class="cls-1" width="1.928" height="0.771" transform="translate(3.181 11.759)"/>
    <rect id="Rectangle_2277" data-name="Rectangle 2277" class="cls-1" width="1.928" height="0.771" transform="translate(10.892 11.759)"/>
</svg>
