<svg xmlns="http://www.w3.org/2000/svg" viewBox="0 0 18 18">
  <defs>
    <style>
      .cls-1 {
        fill: #fff;
      }
    </style>
  </defs>
  <path id="Path_3019" data-name="Path 3019" class="cls-1" d="M9,0a9,9,0,1,0,9,9A9.026,9.026,0,0,0,9,0ZM9,17.1A8.1,8.1,0,1,1,17.1,9,8.1,8.1,0,0,1,9,17.1ZM12.96,5.67,9.63,9l3.33,3.33a.435.435,0,0,1,0,.63.514.514,0,0,1-.66,0L9,9.63,5.67,12.96a.514.514,0,0,1-.66,0,.435.435,0,0,1,0-.63L8.37,9,5.04,5.67a.445.445,0,0,1,.63-.63L9,8.37l3.33-3.33a.445.445,0,0,1,.63.63Z"/>
</svg>
