<svg id="Group_3185" data-name="Group 3185" xmlns="http://www.w3.org/2000/svg" viewBox="0 0 20 20">
  <defs>
    <style>
      .cls-1 {
        fill: #fff;
      }
    </style>
  </defs>
  <g id="Group_3185-2" data-name="Group 3185">
    <path id="Path_3150" data-name="Path 3150" class="cls-1" d="M69,481h2.5v-3.75H69Zm-4.375-1.25a.625.625,0,0,1,0-1.25H67.75v-1.875a.59.59,0,0,1,.625-.625h3.75a.59.59,0,0,1,.625.625V478.5H83.375a.625.625,0,0,1,0,1.25H72.75v1.875a.59.59,0,0,1-.625.625h-3.75a.59.59,0,0,1-.625-.625V479.75Zm18.75,12.5a.625.625,0,0,1,0,1.25H72.75v1.875a.59.59,0,0,1-.625.625h-3.75a.59.59,0,0,1-.625-.625V493.5H64.625a.625.625,0,0,1,0-1.25H67.75v-1.875a.59.59,0,0,1,.625-.625h3.75a.59.59,0,0,1,.625.625v1.875ZM69,494.75h2.5V491H69Zm14.375-9.375a.625.625,0,0,1,0,1.25H80.25V488.5a.59.59,0,0,1-.625.625h-3.75a.59.59,0,0,1-.625-.625v-1.875H64.625a.625.625,0,0,1,0-1.25H75.25V483.5a.59.59,0,0,1,.625-.625h3.75a.59.59,0,0,1,.625.625v1.875Zm-6.875,2.5H79v-3.75H76.5Z" transform="translate(-64 -476)"/>
  </g>
</svg>
