<svg xmlns="http://www.w3.org/2000/svg" viewBox="0 0 3.7 20.29"><defs><style>.cls-1{isolation:isolate;}.cls-2{fill:#fff;}</style></defs><title> </title><g id="Layer_2" data-name="Layer 2"><g id="Layer_1-2" data-name="Layer 1"><g id="_" data-name=" " class="cls-1"><g class="cls-1"><path class="cls-2" d="M0,1.79A1.74,1.74,0,0,1,.53.51,1.82,1.82,0,0,1,1.83,0,1.9,1.9,0,0,1,3.15.51,1.68,1.68,0,0,1,3.7,1.79a1.73,1.73,0,0,1-.55,1.29,1.84,1.84,0,0,1-1.32.54A1.81,1.81,0,0,1,0,1.79Zm0,8.34A1.82,1.82,0,0,1,.53,8.82a1.77,1.77,0,0,1,1.3-.54,1.84,1.84,0,0,1,1.32.54,1.76,1.76,0,0,1,.55,1.31,1.73,1.73,0,0,1-.55,1.28A1.84,1.84,0,0,1,1.83,12a1.77,1.77,0,0,1-1.3-.54A1.78,1.78,0,0,1,0,10.13Zm0,8.33a1.76,1.76,0,0,1,.53-1.29,1.83,1.83,0,0,1,1.3-.52,1.91,1.91,0,0,1,1.32.52,1.7,1.7,0,0,1,.55,1.29,1.73,1.73,0,0,1-.55,1.29,1.84,1.84,0,0,1-1.32.54,1.77,1.77,0,0,1-1.3-.54A1.79,1.79,0,0,1,0,18.46Z"/></g></g></g></g></svg>