<svg xmlns="http://www.w3.org/2000/svg" width="32" height="32" viewBox="0 0 32 32">
  <title>error</title>
  <g id="Layer_2" data-name="Layer 2">
    <g id="Layer_1-2" data-name="Layer 1">
      <g>
        <path d="M16,2A14,14,0,1,1,2,16,14,14,0,0,1,16,2m0-2A16,16,0,1,0,32,16,16,16,0,0,0,16,0Z" fill="#fff"/>
        <path d="M16,24.5A1.5,1.5,0,0,1,14.3,23a1.7,1.7,0,0,1,.5-1.2,1.6,1.6,0,0,1,1.2-.4,1.6,1.6,0,0,1,1.2.4,1.7,1.7,0,0,1,.5,1.2A1.5,1.5,0,0,1,16,24.5Zm1.3-17-.2,11.8H14.9L14.6,7.5Z" fill="#fff"/>
      </g>
    </g>
  </g>
</svg>
