<svg id="Group_2995" data-name="Group 2995" xmlns="http://www.w3.org/2000/svg" viewBox="0 0 18.4 18.3">
  <defs>
    <style>
      .cls-1 {
        fill: #fff;
      }
    </style>
  </defs>
  <path id="Path_2932" data-name="Path 2932" class="cls-1" d="M16,10.9a.43.43,0,0,0-.4.4v6.2H.8V3H7.1a.43.43,0,0,0,.4-.4.43.43,0,0,0-.4-.4H.4a.43.43,0,0,0-.4.4V17.9a.43.43,0,0,0,.4.4H16a.43.43,0,0,0,.4-.4V11.3A.366.366,0,0,0,16,10.9Z"/>
  <path id="Path_2933" data-name="Path 2933" class="cls-1" d="M18,0H11.3a.43.43,0,0,0-.4.4.43.43,0,0,0,.4.4H17L5.5,12.3a.375.375,0,0,0,0,.6.367.367,0,0,0,.3.1.367.367,0,0,0,.3-.1L17.6,1.5V7.2a.4.4,0,1,0,.8,0V.5A.458.458,0,0,0,18,0Z"/>
</svg>
