<svg id="Group_3088" data-name="Group 3088" xmlns="http://www.w3.org/2000/svg" viewBox="0 0 344 36.643">
  <defs>
    <style>
      .cls-1 {
        fill: #fff;
      }
    </style>
  </defs>
  <path id="Path_3043" data-name="Path 3043" class="cls-1" d="M192.368,30.99h-7.215V5.735h7.215a12.764,12.764,0,0,1,13.066,12.673c0,6.98-5.655,12.582-13.066,12.582m0-30.49H175.5l3.8,5.051V36.224l13.066.092c10.628,0,18.819-7.99,18.819-17.908S203,.5,192.368.5" transform="translate(-4.378 -0.041)"/>
  <path id="Path_3044" data-name="Path 3044" class="cls-1" d="M102.153.5H92.5l3.8,4.959V36.133h23.4V31.173H102.153Z" transform="translate(-2.307 -0.041)"/>
  <path id="Path_3045" data-name="Path 3045" class="cls-1" d="M352.1.5H324.9l3.8,4.959V36.133h23.4V31.173H334.553V5.551H352.1Z" transform="translate(-8.104 -0.041)"/>
  <path id="Path_3046" data-name="Path 3046" class="cls-1" d="M347.471,21.859V16.9H338.5l3.705,4.959Z" transform="translate(-8.443 -1.38)"/>
  <path id="Path_3047" data-name="Path 3047" class="cls-1" d="M3.8,5.459V36.133h5.85V.5H0Z" transform="translate(0 -0.041)"/>
  <path id="Path_3048" data-name="Path 3048" class="cls-1" d="M27.056,15.469H13.6l3.705,5.051h9.751V36.133H33V.5H27.056Z" transform="translate(-0.339 -0.041)"/>
  <path id="Path_3049" data-name="Path 3049" class="cls-1" d="M64.411,31.224A13.069,13.069,0,0,1,51.053,18.276a13.365,13.365,0,0,1,26.717,0c.1,7.255-5.753,12.949-13.358,12.949M64.411,0C53.685,0,45.3,8.173,45.3,18.367c0,10.1,8.385,18.276,19.111,18.276,10.823,0,19.306-8.173,19.306-18.276C83.717,8.173,75.332,0,64.411,0" transform="translate(-1.13)"/>
  <path id="Path_3050" data-name="Path 3050" class="cls-1" d="M147.511,31.224a13.069,13.069,0,0,1-13.358-12.949,13.365,13.365,0,1,1,13.358,12.949m0-31.224C136.688,0,128.4,8.173,128.4,18.367c0,10.1,8.385,18.276,19.111,18.276,10.823,0,19.306-8.173,19.306-18.276C166.72,8.173,158.334,0,147.511,0" transform="translate(-3.203)"/>
  <path id="Path_3051" data-name="Path 3051" class="cls-1" d="M241.511,31.224a13.069,13.069,0,0,1-13.358-12.949,13.365,13.365,0,1,1,13.358,12.949m0-31.224C230.688,0,222.4,8.173,222.4,18.367c0,10.1,8.385,18.276,19.111,18.276,10.823,0,19.306-8.173,19.306-18.276C260.72,8.173,252.334,0,241.511,0" transform="translate(-5.547)"/>
  <path id="Path_3052" data-name="Path 3052" class="cls-1" d="M292.714,22.082,276.82.5H269.8l3.705,5.051V36.133h5.85V13.357l13.358,17.908,13.358-17.908V36.133h5.85V.5H308.7Z" transform="translate(-6.73 -0.041)"/>
</svg>
