<svg xmlns="http://www.w3.org/2000/svg" viewBox="0 0 18 18"><defs><style>.cls-1{fill:#fff;}.cls-2{isolation:isolate;}</style></defs><title>Group 3289</title><g id="Layer_2" data-name="Layer 2"><g id="Layer_1-2" data-name="Layer 1"><g id="Group_3289" data-name="Group 3289"><path class="cls-1" d="M2,0V2H0V3H2V7.79H0v1H2V13H0v1H2v4H18V0ZM17,17H3V14H4V13H3V8.79H4v-1H3V3H4V2H3V1H17Z"/><g id="user" class="cls-2"><g class="cls-2"><path class="cls-1" d="M11.64,9.72a6.16,6.16,0,0,1,1.68.9A6.2,6.2,0,0,1,14.59,12a6.07,6.07,0,0,1,.8,1.66,6.2,6.2,0,0,1,.28,1.88h-.88a5.46,5.46,0,0,0-.39-2.08,5.19,5.19,0,0,0-1.11-1.67,5.12,5.12,0,0,0-1.66-1.1,5.33,5.33,0,0,0-2.09-.4A5.16,5.16,0,0,0,6.88,11a4.66,4.66,0,0,0-1.06.81A5.27,5.27,0,0,0,5,12.83a5.39,5.39,0,0,0-.52,1.26,5.45,5.45,0,0,0-.19,1.41H3.42a6.16,6.16,0,0,1,.29-1.88A6,6,0,0,1,4.52,12,5.77,5.77,0,0,1,5.8,10.64a6,6,0,0,1,1.67-.91,4,4,0,0,1-1-.7,4.25,4.25,0,0,1-.72-.91,4.43,4.43,0,0,1-.46-1.07,4.18,4.18,0,0,1-.16-1.17,4.25,4.25,0,0,1,.34-1.71A4.42,4.42,0,0,1,7.84,1.84a4.45,4.45,0,0,1,3.41,0,4.42,4.42,0,0,1,2.33,2.33,4.25,4.25,0,0,1,.34,1.71A4.06,4.06,0,0,1,13.76,7a4.43,4.43,0,0,1-.46,1.07,4.51,4.51,0,0,1-.72.91A4,4,0,0,1,11.64,9.72ZM6,5.88a3.48,3.48,0,0,0,.28,1.36,3.88,3.88,0,0,0,.75,1.11,3.88,3.88,0,0,0,1.11.75,3.47,3.47,0,0,0,2.73,0A3.88,3.88,0,0,0,12,8.35a3.88,3.88,0,0,0,.75-1.11,3.59,3.59,0,0,0,0-2.73A3.88,3.88,0,0,0,12,3.4a3.88,3.88,0,0,0-1.11-.75,3.59,3.59,0,0,0-2.73,0,3.88,3.88,0,0,0-1.11.75,3.88,3.88,0,0,0-.75,1.11A3.49,3.49,0,0,0,6,5.88Z"/></g></g></g></g></g></svg>
