<?xml version="1.0" encoding="utf-8"?>
<!-- Generator: Adobe Illustrator 22.1.0, SVG Export Plug-In . SVG Version: 6.00 Build 0)  -->
<svg version="1.1" id="Layer_1" xmlns="http://www.w3.org/2000/svg" xmlns:xlink="http://www.w3.org/1999/xlink" x="0px" y="0px"
	 viewBox="0 0 31.5 30.8" style="enable-background:new 0 0 31.5 30.8;" xml:space="preserve">
<style type="text/css">
	.st0{fill:#FFFFFF;}
</style>
<title>map_view</title>
<g id="Layer_1-2">
	<g>
		<path class="st0" d="M9.7,24.4l-0.6,0l-8.8-3.7L0,20.3V0.8c0-0.2,0.1-0.4,0.2-0.6L0.4,0L1,0l8.9,3.7c0.2,0.2,0.2,0.4,0.2,0.7v19.3
			c0,0.3-0.1,0.4-0.2,0.6L9.7,24.4z M1,19.9l8.1,3.4V4.5L1,1.1L1,19.9z"/>
		<path class="st0" d="M31.1,24.4l-0.6,0L27.2,23l0.4-0.9l2.9,1.2V4.5l-8.1-3.4l0,11.4h-1V0.8c0-0.2,0.1-0.4,0.2-0.6L21.8,0l0.6,0
			l8.8,3.7c0.1,0.1,0.3,0.3,0.3,0.7v19.3c0,0.3-0.1,0.4-0.2,0.6L31.1,24.4z"/>
		<path class="st0" d="M11.6,24.4h-0.5l-0.1-0.1c-0.2-0.2-0.2-0.3-0.2-0.6V4.4c0-0.3,0-0.4,0.2-0.7l0.2-0.1L20,0h0.4l0.1,0.2
			c0.2,0.2,0.2,0.4,0.2,0.7l0,11.7h-1V1.1l-8.1,3.4l0,18.8l2.9-1.2L15,23L11.6,24.4z"/>
		<path class="st0" d="M21.1,14.4c1.3,0,2.6,0.5,3.5,1.5c1,0.9,1.5,2.2,1.5,3.5c0,0.8-0.2,1.7-0.6,2.4h-0.1
			c-0.4,0.7-2.6,4.7-4.3,7.6c-1.7-2.9-3.9-6.9-4.3-7.6h-0.1c-0.4-0.7-0.6-1.6-0.6-2.4C16.1,16.6,18.3,14.4,21.1,14.4 M21.1,13.4
			c-3.3,0-6,2.7-6,6c0,1,0.3,2,0.7,2.9l4.7,8.2c0.1,0.2,0.4,0.3,0.6,0.3c0.2,0,0.4-0.1,0.6-0.3l4.7-8.2c0.4-0.9,0.7-1.9,0.7-2.9
			C27.1,16.1,24.4,13.4,21.1,13.4z"/>
	</g>
</g>
</svg>
