<svg xmlns="http://www.w3.org/2000/svg" width="24" height="26.6" viewBox="0 0 24 26.6">
  <title>notifications</title>
  <g id="Layer_2" data-name="Layer 2">
    <g id="Layer_1-2" data-name="Layer 1">
      <path d="M16,23.1a4.2,4.2,0,0,1-4,3.5,4.2,4.2,0,0,1-4-3.5H1.2A1.2,1.2,0,0,1,0,21.9V20.5a2.6,2.6,0,0,1,2.6-2.6c.1,0,.2-.1.2-.3V12A9.1,9.1,0,0,1,9.2,3.3V2.8a2.8,2.8,0,0,1,5.6,0v.5A9.1,9.1,0,0,1,21.2,12v5.6c0,.2.1.3.2.3A2.6,2.6,0,0,1,24,20.5v1.4a1.2,1.2,0,0,1-1.2,1.2Zm-1.5,0h-5a2.5,2.5,0,0,0,5,0Zm8.1-2.6a1.2,1.2,0,0,0-1.2-1.2,1.6,1.6,0,0,1-1.6-1.7V12a7.8,7.8,0,0,0-5.9-7.5l-.5-.2V2.8a1.4,1.4,0,0,0-2.8,0V4.3l-.5.2A7.8,7.8,0,0,0,4.2,12v5.6a1.6,1.6,0,0,1-1.6,1.7,1.2,1.2,0,0,0-1.2,1.2v1.1H22.6Z" fill="#fff"/>
    </g>
  </g>
</svg>
