<svg id="Group_3294" data-name="Group 3294" xmlns="http://www.w3.org/2000/svg" viewBox="0 0 21.095 20.996">
  <defs>
    <style>
      .cls-1 {
        fill: #fff;
      }
    </style>
  </defs>
  <path id="Path_3207" data-name="Path 3207" class="cls-1" d="M12.7,4.239l-3.074.05a8.712,8.712,0,0,1,5.8-2.33,8.642,8.642,0,0,1,8.5,8.527h1.983A10.6,10.6,0,0,0,15.448,0,10.576,10.576,0,0,0,8.482,2.677l.05-2.6L6.549.025,6.4,6.371l6.346-.149Z" transform="translate(-4.814)"/>
  <path id="Path_3208" data-name="Path 3208" class="cls-1" d="M10.486,52.81a10.576,10.576,0,0,0,6.966-2.677l-.05,2.6,1.983.05.149-6.346-6.346.124.05,1.983,3.074-.05a8.712,8.712,0,0,1-5.8,2.33A8.647,8.647,0,0,1,1.983,42.3H0A10.645,10.645,0,0,0,10.486,52.81Z" transform="translate(0 -31.814)"/>
</svg>
