<svg id="Layer_1" data-name="Layer 1" xmlns="http://www.w3.org/2000/svg" viewBox="0 0 38 38"><title>restart</title><g id="Group_3137" data-name="Group 3137"><g id="Group_3136" data-name="Group 3136"><g id="Image"><path d="M19,3A16,16,0,1,0,35,19,16,16,0,0,0,19,3m0-3a19,19,0,0,1,7.4,1.49A19,19,0,0,1,36.51,11.6a19.12,19.12,0,0,1,0,14.8A19,19,0,0,1,26.4,36.51a19.12,19.12,0,0,1-14.8,0A19,19,0,0,1,1.49,26.4a19.12,19.12,0,0,1,0-14.8A19,19,0,0,1,11.6,1.49,19,19,0,0,1,19,0Z" style="fill:#fff"/></g></g><circle id="Ellipse_104" data-name="Ellipse 104" cx="9.75" cy="19.75" r="2.75" style="fill:#fff"/><circle id="Ellipse_105" data-name="Ellipse 105" cx="18.75" cy="19.75" r="2.75" style="fill:#fff"/><circle id="Ellipse_107" data-name="Ellipse 107" cx="27.75" cy="19.75" r="2.75" style="fill:#fff"/></g></svg>