<svg id="resume" xmlns="http://www.w3.org/2000/svg" viewBox="0 0 18 18">
  <defs>
    <style>
      .cls-1 {
        fill: #fff;
      }
    </style>
  </defs>
  <path id="Path_3154" data-name="Path 3154" class="cls-1" d="M.375,9.375A.354.354,0,0,1,0,9,9.026,9.026,0,0,1,9,0a9.154,9.154,0,0,1,8.25,5.325c.075.225,0,.375-.225.525-.225.075-.375,0-.525-.225A8.233,8.233,0,0,0,.75,9,.354.354,0,0,1,.375,9.375Z"/>
  <path id="Path_3155" data-name="Path 3155" class="cls-1" d="M22.375,6.5A.354.354,0,0,1,22,6.125V2.375a.375.375,0,0,1,.75,0v3.75A.354.354,0,0,1,22.375,6.5Z" transform="translate(-5.5 -0.5)"/>
  <path id="Path_3156" data-name="Path 3156" class="cls-1" d="M21.125,7.75h-3.75a.375.375,0,1,1,0-.75h3.75a.375.375,0,1,1,0,.75Z" transform="translate(-4.25 -1.75)"/>
  <path id="Path_3157" data-name="Path 3157" class="cls-1" d="M9.241,20.875A9.154,9.154,0,0,1,.991,15.55c-.075-.225,0-.375.225-.525.225-.075.375,0,.525.225a8.233,8.233,0,0,0,15.75-3.375.375.375,0,0,1,.75,0A9.026,9.026,0,0,1,9.241,20.875Z" transform="translate(-0.241 -2.875)"/>
  <path id="Path_3158" data-name="Path 3158" class="cls-1" d="M1.375,20.5A.354.354,0,0,1,1,20.125v-3.75A.354.354,0,0,1,1.375,16a.354.354,0,0,1,.375.375v3.75A.354.354,0,0,1,1.375,20.5Z" transform="translate(-0.25 -4)"/>
  <path id="Path_3159" data-name="Path 3159" class="cls-1" d="M5.125,16.75H1.375a.375.375,0,1,1,0-.75h3.75a.375.375,0,1,1,0,.75Z" transform="translate(-0.25 -4)"/>
</svg>
