<svg xmlns="http://www.w3.org/2000/svg" width="24" height="24" viewBox="0 0 24 24">
  <title>settings</title>
  <g id="Layer_2" data-name="Layer 2">
    <g id="Layer_1-2" data-name="Layer 1">
      <path d="M20.9,11.6v.8L24,14.3l-1.9,4.5L18.6,18l-.6.6.8,3.5L14.3,24l-1.9-3.1h-.8L9.7,24,5.2,22.1,6,18.6,5.4,18l-3.5.8L0,14.3l3.1-1.9v-.8L0,9.7,1.9,5.2,5.4,6,6,5.4,5.2,1.9,9.7,0l1.9,3.1h.8L14.3,0l4.5,1.9L18,5.4l.6.6,3.5-.8L24,9.7Zm-1.3,1.5V10.9l2.7-1.8-1-2.4-3.2.7-.7-.8-.8-.7.7-3.2-2.4-1L13.1,4.4H10.9L9.1,1.7l-2.4,1,.7,3.2-.8.7-.7.8L2.7,6.7l-1,2.4,2.7,1.8v2.2L1.7,14.9l1,2.4,3.2-.7.7.8.8.7-.7,3.2,2.4,1,1.8-2.7h2.2l1.8,2.7,2.4-1-.7-3.2.8-.7.7-.8,3.2.7,1-2.4ZM12,7.6a4.7,4.7,0,0,1,1.7.3,3.6,3.6,0,0,1,1.4,1,3.6,3.6,0,0,1,1,1.4,5,5,0,0,1,0,3.4,3.6,3.6,0,0,1-1,1.4,3.6,3.6,0,0,1-1.4,1,5,5,0,0,1-3.4,0,3.6,3.6,0,0,1-1.4-1,3.6,3.6,0,0,1-1-1.4,5,5,0,0,1,0-3.4,3.6,3.6,0,0,1,1-1.4,3.6,3.6,0,0,1,1.4-1A4.7,4.7,0,0,1,12,7.6Zm0,7.5,1.2-.2,1-.7a3.6,3.6,0,0,0,.7-1,5,5,0,0,0,.2-1.2,5,5,0,0,0-.2-1.2,3.6,3.6,0,0,0-.7-1l-1-.7L12,8.9l-1.2.2-1,.7a3.6,3.6,0,0,0-.7,1A5,5,0,0,0,8.9,12a5,5,0,0,0,.2,1.2,3.6,3.6,0,0,0,.7,1l1,.7Z" fill="#fff"/>
    </g>
  </g>
</svg>
