<svg xmlns="http://www.w3.org/2000/svg" width="16" height="10" viewBox="0 0 16 10">
  <title>show_password</title>
  <g id="Layer_2" data-name="Layer 2">
    <g id="Layer_1-2" data-name="Layer 1">
      <path d="M7.7,0A9,9,0,0,1,10,.2l2.1.7,1.8,1.3A8.6,8.6,0,0,1,15.3,4a5,5,0,0,1,.5,1.3A6.8,6.8,0,0,1,16,6.7H15A3.5,3.5,0,0,0,14.6,5a3.9,3.9,0,0,0-.8-1.4L12.6,2.4a7.1,7.1,0,0,0-1.5-.8L9.5,1.1H7.8a5.1,5.1,0,0,0-1.7.3,4.4,4.4,0,0,0-1.6.6,4.2,4.2,0,0,0-1.4.9L1.9,4a10.1,10.1,0,0,0-.7,1.5A9.9,9.9,0,0,0,1,7.3H0A6.1,6.1,0,0,1,.1,5.9c.1-.5.3-.9.4-1.4A8.3,8.3,0,0,1,1.8,2.7,5.5,5.5,0,0,1,3.5,1.3a7.2,7.2,0,0,1,2-.9A9.3,9.3,0,0,1,7.7,0Zm.2,4,1.2.2a1.8,1.8,0,0,1,.9.6,2.8,2.8,0,0,1,.7.9A2.7,2.7,0,0,1,11,6.9a5,5,0,0,1-.2,1.2,1.8,1.8,0,0,1-.6.9,2.8,2.8,0,0,1-.9.7,2.7,2.7,0,0,1-1.2.3,2.5,2.5,0,0,1-1.2-.2A1.8,1.8,0,0,1,6,9.2a2.8,2.8,0,0,1-.7-.9A2.7,2.7,0,0,1,5,7.1a2.5,2.5,0,0,1,.2-1.2A1.8,1.8,0,0,1,5.8,5a2.8,2.8,0,0,1,.9-.7A2.7,2.7,0,0,1,7.9,4Zm.2,5,.7-.2.7-.4a4.3,4.3,0,0,0,.4-.7,1.9,1.9,0,0,0,.1-.8,1.9,1.9,0,0,0-.2-.7,4.3,4.3,0,0,0-.4-.7l-.7-.4H7.9l-.7.2-.7.4a4.3,4.3,0,0,0-.4.7,1.9,1.9,0,0,0-.1.8,1.4,1.4,0,0,0,.2.7,1.6,1.6,0,0,0,.4.7l.7.4Z"/>
    </g>
  </g>
</svg>
