<svg xmlns="http://www.w3.org/2000/svg" viewBox="0 0 31 30.8"><defs><style>.cls-1{fill:#fff;}</style></defs><title>status-restarting-1</title><g id="Layer_2" data-name="Layer 2"><g id="Layer_1-2" data-name="Layer 1"><g id="Image"><path class="cls-1" d="M15.5,2.5a13,13,0,1,0,13,13,13,13,0,0,0-13-13m0-2.5a15.31,15.31,0,0,1,6,1.2,16.73,16.73,0,0,1,5,3.3,16.27,16.27,0,0,1,3.3,4.9,15.6,15.6,0,0,1,0,12,16.27,16.27,0,0,1-3.3,4.9,16.27,16.27,0,0,1-4.9,3.3,15.6,15.6,0,0,1-12,0,12.76,12.76,0,0,1-5.1-3.1,16.27,16.27,0,0,1-3.3-4.9,15.6,15.6,0,0,1,0-12A16,16,0,0,1,4.5,4.5a16.73,16.73,0,0,1,5-3.3A15.31,15.31,0,0,1,15.5,0Z"/></g><circle id="Ellipse_121" data-name="Ellipse 121" class="cls-1" cx="9.5" cy="15.5" r="2"/><circle id="Ellipse_122" data-name="Ellipse 122" class="cls-1" cx="15.5" cy="15.5" r="2"/><circle id="Ellipse_123" data-name="Ellipse 123" class="cls-1" cx="21.5" cy="15.5" r="2"/></g></g></svg>
