<svg xmlns="http://www.w3.org/2000/svg" viewBox="0 0 31 31"><title>status-offline</title><g id="Layer_2" data-name="Layer 2"><g id="Layer_1-2" data-name="Layer 1"><path d="M15.5,31A15.58,15.58,0,0,1,0,15.5,15.58,15.58,0,0,1,15.5,0,15.58,15.58,0,0,1,31,15.5,15.58,15.58,0,0,1,15.5,31Zm0-28.5a13,13,0,1,0,13,13A13,13,0,0,0,15.5,2.5Z" style="fill:#fff"/><path d="M15.3,22.3a6.94,6.94,0,0,1-7-6.9,6.6,6.6,0,0,1,1.3-4,7,7,0,0,1,3.3-2.5l.2-.1.5,1.3-.2.1a5.51,5.51,0,0,0,1.9,10.7h.2A5.48,5.48,0,0,0,21,15.4a5.64,5.64,0,0,0-3.6-5.3l-.2-.1.5-1.3.2.1a8.07,8.07,0,0,1,3.3,2.5,7.07,7.07,0,0,1,1.3,4A7.4,7.4,0,0,1,15.3,22.3Z" style="fill:#fff"/><path d="M16,16.4H14.6V8.2H16Z" style="fill:#fff"/></g></g></svg>