<svg xmlns="http://www.w3.org/2000/svg" viewBox="0 0 30 30"><title>status-error</title><g id="Layer_2" data-name="Layer 2"><g id="Layer_1-2" data-name="Layer 1"><path d="M15,0A15,15,0,1,0,30,15,15,15,0,0,0,15,0Zm0,28A13,13,0,1,1,28,15,13,13,0,0,1,15,28Z" style="fill:#fff"/><path d="M15,21.7a1.89,1.89,0,0,1-1.3-.5,1.63,1.63,0,0,1-.5-1.1,1.7,1.7,0,0,1,.5-1.2,2,2,0,0,1,1.3-.4,2,2,0,0,1,1.3.4,1.78,1.78,0,0,1,.5,1.2,1.7,1.7,0,0,1-.5,1.2A2,2,0,0,1,15,21.7Z" style="fill:#fff"/><polygon points="16.6 7.5 16.2 17.1 13.7 17.1 13.4 7.5 16.6 7.5" style="fill:#fff"/></g></g></svg>