<svg xmlns="http://www.w3.org/2000/svg" width="24.5" height="24.5" viewBox="0 0 24.5 24.5">
  <title>support</title>
  <g id="Layer_2" data-name="Layer 2">
    <g id="Layer_1-2" data-name="Layer 1">
      <g>
        <path d="M12.2,24.5A12.3,12.3,0,1,1,24.5,12.2,12.3,12.3,0,0,1,12.2,24.5Zm0-23A10.8,10.8,0,1,0,23,12.2,10.7,10.7,0,0,0,12.2,1.5Z" fill="#fff"/>
        <path d="M10.4,9.2a1.4,1.4,0,0,1,.9-1.4l.8-.2c.9,0,1.7.3,1.9,1.3a2.2,2.2,0,0,1-.5,1.9l-1.6,2a2.6,2.6,0,0,0-.6,2.1h1.6v-.3a2,2,0,0,1,.7-1.6l.8-.9a4.2,4.2,0,0,0,1.2-2.4,2.8,2.8,0,0,0-1-2.7,3.6,3.6,0,0,0-1.7-.7,4.1,4.1,0,0,0-2.7.5A2.5,2.5,0,0,0,8.9,9.2Zm.9,7.4v1.6h1.6V16.6Z" fill="#fff"/>
      </g>
    </g>
  </g>
</svg>
