<svg xmlns="http://www.w3.org/2000/svg" width="24" height="12.98" viewBox="0 0 30.5 16.5">
  <title>Asset 1</title>
  <g id="Layer_2" data-name="Layer 2">
    <g id="Layer_1-2" data-name="Layer 1">
      <g id="icon-system">
        <g id="icon-system_new" data-name="icon-system new">
          <path id="Path_3053" data-name="Path 3053" d="M15.1.3A15,15,0,0,0,.3,15.1,80.2,80.2,0,0,0,15,16.2a87.5,87.5,0,0,0,15.3-1.1h0C29.9,6.7,23.2.1,15.1.3ZM.7,14.7C1.3,7.5,7.5,1.2,14.4.7A18.6,18.6,0,0,0,6.8,15.3Zm14.1.8-7.5-.2A17.3,17.3,0,0,1,14.8,1.2Zm.7,0V1A17.2,17.2,0,0,1,23,15.3l-7.5.2Zm7.8-.2A18.5,18.5,0,0,0,15.9.7c7,.5,13.1,6.8,13.8,14l-6.4.6Z" fill="#fff" stroke="#fff" stroke-width="0.5"/>
        </g>
      </g>
    </g>
  </g>
</svg>
