<svg xmlns="http://www.w3.org/2000/svg" width="27.7" height="24.4" viewBox="0 0 27.7 24.4">
  <title>table_view</title>
  <g id="Layer_2" data-name="Layer 2">
    <g id="Layer_1-2" data-name="Layer 1">
      <g>
        <path d="M4.1,14.5H.5A.5.5,0,0,1,0,14V10.4a.5.5,0,0,1,.5-.5H4.1a.5.5,0,0,1,.5.5V14A.5.5,0,0,1,4.1,14.5Z" fill="#fff"/>
        <path d="M26.7,10.9v2.6H9V10.9H26.7m.5-1H8.5a.5.5,0,0,0-.5.5V14a.5.5,0,0,0,.5.5H27.2a.5.5,0,0,0,.5-.5V10.4a.5.5,0,0,0-.5-.5Z" fill="#fff"/>
        <path d="M4.1,4.6H.5A.5.5,0,0,1,0,4.1V.5A.5.5,0,0,1,.5,0H4.1a.5.5,0,0,1,.5.5V4.1A.5.5,0,0,1,4.1,4.6Z" fill="#fff"/>
        <path d="M26.7,1V3.6H9V1H26.7m.5-1H8.5A.5.5,0,0,0,8,.5V4.1a.5.5,0,0,0,.5.5H27.2a.5.5,0,0,0,.5-.5V.5a.5.5,0,0,0-.5-.5Z" fill="#fff"/>
        <path d="M4.1,24.4H.5a.5.5,0,0,1-.5-.5V20.3a.5.5,0,0,1,.5-.5H4.1a.5.5,0,0,1,.5.5v3.6A.5.5,0,0,1,4.1,24.4Z" fill="#fff"/>
        <path d="M26.7,20.8v2.6H9V20.8H26.7m.5-1H8.5a.5.5,0,0,0-.5.5v3.6a.5.5,0,0,0,.5.5H27.2a.5.5,0,0,0,.5-.5V20.3a.5.5,0,0,0-.5-.5Z" fill="#fff"/>
      </g>
    </g>
  </g>
</svg>
