<svg id="Group_3024" data-name="Group 3024" xmlns="http://www.w3.org/2000/svg" viewBox="0 0 18 18">
  <defs>
    <style>
      .cls-1 {
        fill: #fff;
      }
    </style>
  </defs>
  <path id="Path_3016" data-name="Path 3016" class="cls-1" d="M9,18a9,9,0,1,1,9-9A9.013,9.013,0,0,1,9,18ZM9,1.023A7.977,7.977,0,1,0,16.977,9,7.988,7.988,0,0,0,9,1.023Z"/>
  <path id="Path_3017" data-name="Path 3017" class="cls-1" d="M35.768,21.049a.5.5,0,0,1-.358-.153l-2.557-2.531a.5.5,0,0,1-.153-.358V12.611a.511.511,0,1,1,1.023,0V17.8l2.4,2.378a.494.494,0,0,1,0,.716A.5.5,0,0,1,35.768,21.049Z" transform="translate(-24.339 -9.006)"/>
</svg>
