<svg id="Group_3033" data-name="Group 3033" xmlns="http://www.w3.org/2000/svg" viewBox="0 0 18 20.769">
  <defs>
    <style>
      .cls-1 {
        fill: #fff;
      }
    </style>
  </defs>
  <g id="Group_3027" data-name="Group 3027" transform="translate(0)">
    <path id="Path_3018" data-name="Path 3018" class="cls-1" d="M15.646,19.038a1.1,1.1,0,0,1-1.108,1.038H3.462a1.128,1.128,0,0,1-1.108-1.038L1.731,3.808a.346.346,0,1,0-.692,0l.623,15.231a1.82,1.82,0,0,0,1.8,1.731H14.538a1.815,1.815,0,0,0,1.8-1.7l.623-15.265a.346.346,0,1,0-.692,0ZM8.654,17.654a.346.346,0,0,0,.692,0V5.885a.346.346,0,1,0-.692,0Zm-3.462,0a.346.346,0,0,0,.692,0L5.538,5.885a.346.346,0,0,0-.692,0Zm6.923,0a.346.346,0,0,0,.692,0l.346-11.769a.346.346,0,0,0-.692,0ZM12.7,1.731h4.95A.327.327,0,0,1,18,2.077a.327.327,0,0,1-.346.346H.346A.327.327,0,0,1,0,2.077a.327.327,0,0,1,.346-.346H5.3l.277-.692A1.748,1.748,0,0,1,7.1,0H10.9a1.748,1.748,0,0,1,1.523,1.038l.277.692Zm-.762,0-.173-.45A1.045,1.045,0,0,0,10.9.692H7.1a1.045,1.045,0,0,0-.865.588l-.173.45Z" transform="translate(0)"/>
  </g>
</svg>
