<?xml version="1.0" encoding="utf-8"?>
<!-- Generator: Adobe Illustrator 23.0.1, SVG Export Plug-In . SVG Version: 6.00 Build 0)  -->
<svg version="1.0" id="Layer_1" xmlns="http://www.w3.org/2000/svg" xmlns:xlink="http://www.w3.org/1999/xlink" x="0px" y="0px"
	 width="17px" height="22.5px" viewBox="0 0 17 22.5" enable-background="new 0 0 17 22.5" xml:space="preserve">
<g>
	<path fill="#FFFFFF" d="M9.2,18H7.8v-1.9c-0.8-0.3-1.4-1.1-1.4-2c0-1.1,1-2.1,2.1-2.1s2.1,0.9,2.1,2.1l0,0c0,0.9-0.6,1.7-1.4,2
		C9.2,16.1,9.2,18,9.2,18z M8.5,13.4c-0.4,0-0.7,0.3-0.7,0.7s0.3,0.7,0.7,0.7s0.7-0.3,0.7-0.7S8.9,13.4,8.5,13.4z"/>
	<path fill="#FFFFFF" d="M14.7,8.2v-2c0-1.6-0.6-3.2-1.8-4.3C11.8,0.7,10.2,0,8.5,0l0,0c-2.9,0-5.4,2-6,4.9L2.4,5.2h1.4V5
		c0.5-2.1,2.4-3.6,4.6-3.6l0,0c1.3,0,2.5,0.5,3.4,1.4s1.4,2.1,1.3,3.4v2H0v14.2h17V8.2H14.7z M15.6,21.1H1.4V9.7h14.2
		C15.6,9.7,15.6,21.1,15.6,21.1z"/>
</g>
</svg>
