<svg xmlns="http://www.w3.org/2000/svg" width="24" height="27.4" viewBox="0 0 24 27.4">
  <title>user</title>
  <g id="Layer_2" data-name="Layer 2">
    <g id="Layer_1-2" data-name="Layer 1">
      <path d="M16.1,16.1a10.6,10.6,0,0,1,3.3,1.8,10.3,10.3,0,0,1,2.5,2.6,13.7,13.7,0,0,1,1.6,3.2,15.7,15.7,0,0,1,.5,3.7H22.3a10.6,10.6,0,0,0-.8-4,8.3,8.3,0,0,0-2.2-3.3,10.2,10.2,0,0,0-3.2-2.2,11.1,11.1,0,0,0-4.1-.8,12.6,12.6,0,0,0-2.8.4,10.1,10.1,0,0,0-2.4,1,11.6,11.6,0,0,0-2.1,1.6,8.3,8.3,0,0,0-1.6,2.1,10.9,10.9,0,0,0-1,2.5,8.4,8.4,0,0,0-.4,2.7H0a11.5,11.5,0,0,1,.6-3.7,10.7,10.7,0,0,1,1.6-3.2,10.2,10.2,0,0,1,2.5-2.6,14,14,0,0,1,3.2-1.8,5.9,5.9,0,0,1-1.8-1.3A11.9,11.9,0,0,1,4.6,13l-.9-2.1a9.1,9.1,0,0,1-.3-2.3,9.8,9.8,0,0,1,.7-3.4A9.8,9.8,0,0,1,5.9,2.5,7.5,7.5,0,0,1,8.7.7,7.2,7.2,0,0,1,12,0a7.2,7.2,0,0,1,3.3.7,7.5,7.5,0,0,1,2.8,1.8,9.8,9.8,0,0,1,1.8,2.7,9.8,9.8,0,0,1,.7,3.4,9.1,9.1,0,0,1-.3,2.3L19.4,13A11.5,11.5,0,0,1,18,14.7,8.5,8.5,0,0,1,16.1,16.1ZM5.1,8.6a5.8,5.8,0,0,0,.6,2.6,4.8,4.8,0,0,0,1.5,2.2,8,8,0,0,0,2.1,1.5,8.6,8.6,0,0,0,2.7.5,8.6,8.6,0,0,0,2.7-.5,8,8,0,0,0,2.1-1.5,4.8,4.8,0,0,0,1.5-2.2,5.8,5.8,0,0,0,.6-2.6,6,6,0,0,0-.6-2.7,6.2,6.2,0,0,0-1.5-2.2,6,6,0,0,0-2.1-1.4,6.4,6.4,0,0,0-5.4,0A6,6,0,0,0,7.2,3.7,6.2,6.2,0,0,0,5.7,5.9,6,6,0,0,0,5.1,8.6Z" fill="#fff"/>
    </g>
  </g>
</svg>
