<svg xmlns="http://www.w3.org/2000/svg" viewBox="0 0 31 31">
  <defs>
  </defs>
  <g id="Group_3266" data-name="Group 3266" transform="translate(-551.5 -411.5)">
    <g id="Group_3261" data-name="Group 3261" transform="translate(3 -55)">
        <g id="Image-2" data-name="Image" transform="translate(551 469)" style="fill: #fff;">
            <path  d="M 13 0 C 5.82029914855957 0 0 5.82029914855957 0 13 C 0 20.1796989440918 5.82029914855957 26 13 26 C 14.57958030700684 26 16.09336090087891 25.71828079223633 17.20046997070312 25.30641937255859 C 18.49934959411621 24.82889938354492 19.69345092773438 24.17811965942383 20.50917053222656 23.56411933898926 C 23.99225044250488 20.96477890014648 26 17.21685981750488 26 13 C 26 5.82029914855957 20.1796989440918 0 13 0 M 13 -2.5 C 15.09138965606689 -2.5 17.12154006958008 -2.089839935302734 19.0340690612793 -1.280910491943359 C 20.88009071350098 -0.5000991821289062 22.5374698638916 0.6171607971191406 23.96014976501465 2.039850234985352 C 25.38283920288086 3.462530136108398 26.50009918212891 5.119909286499023 27.28091049194336 6.965930938720703 C 28.08983993530273 8.878459930419922 28.5 10.90861034393311 28.5 13 C 28.5 15.49287033081055 27.9196891784668 17.86445045471191 26.77519989013672 20.04887008666992 C 25.65771675109863 22.18173789978027 24.05376052856445 24.03766059875488 22.00754356384277 25.56534576416016 C 20.95423889160156 26.35716819763184 19.51953887939453 27.11680603027344 18.06905364990234 27.65068626403809 C 16.59538269042969 28.19841766357422 14.79539394378662 28.5 13 28.5 C 10.90861034393311 28.5 8.878459930419922 28.08983993530273 6.965930938720703 27.28091049194336 C 5.119909286499023 26.50009918212891 3.462530136108398 25.38283920288086 2.039850234985352 23.96014976501465 C 0.6171607971191406 22.5374698638916 -0.5000991821289062 20.88009071350098 -1.280910491943359 19.0340690612793 C -2.089839935302734 17.12154006958008 -2.5 15.09138965606689 -2.5 13 C -2.5 10.90861034393311 -2.089839935302734 8.878459930419922 -1.280910491943359 6.965930938720703 C -0.5000991821289062 5.119909286499023 0.6171607971191406 3.462530136108398 2.039850234985352 2.039850234985352 C 3.462530136108398 0.6171607971191406 5.119909286499023 -0.5000991821289062 6.965930938720703 -1.280910491943359 C 8.878459930419922 -2.089839935302734 10.90861034393311 -2.5 13 -2.5 Z"/>
        </g>
        <path style="fill: #fff;" id="Path_3196" data-name="Path 3196" d="M3.789,8a4.211,4.211,0,0,1,8.421,0v4.211H3.789Zm9.263,5.053H2.947v1.684H13.053ZM8.421,2.105V0H7.579V2.105Zm4.042,2.021,1.474-1.474-.589-.589L11.874,3.537ZM16,7.579H13.895v.842H16ZM3.537,4.126l.589-.589L2.653,2.063l-.589.589ZM2.105,7.579H0v.842H2.105Z" transform="translate(556 474)"/>
    </g>
  </g>
</svg>
